<svg width="20" height="20" viewBox="0 0 20 20" fill="none" xmlns="http://www.w3.org/2000/svg">
<path d="M6.66666 7.33333C6.66666 7.15652 6.7369 6.98695 6.86193 6.86193C6.98695 6.7369 7.15652 6.66666 7.33333 6.66666H12.6667C12.8435 6.66666 13.013 6.7369 13.1381 6.86193C13.2631 6.98695 13.3333 7.15652 13.3333 7.33333C13.3333 7.51014 13.2631 7.67971 13.1381 7.80474C13.013 7.92976 12.8435 8 12.6667 8H7.33333C7.15652 8 6.98695 7.92976 6.86193 7.80474C6.7369 7.67971 6.66666 7.51014 6.66666 7.33333ZM7.33333 10.6667H12.6667C12.8435 10.6667 13.013 10.5964 13.1381 10.4714C13.2631 10.3464 13.3333 10.1768 13.3333 10C13.3333 9.82319 13.2631 9.65362 13.1381 9.52859C13.013 9.40357 12.8435 9.33333 12.6667 9.33333H7.33333C7.15652 9.33333 6.98695 9.40357 6.86193 9.52859C6.7369 9.65362 6.66666 9.82319 6.66666 10C6.66666 10.1768 6.7369 10.3464 6.86193 10.4714C6.98695 10.5964 7.15652 10.6667 7.33333 10.6667ZM10 12H7.33333C7.15652 12 6.98695 12.0702 6.86193 12.1953C6.7369 12.3203 6.66666 12.4899 6.66666 12.6667C6.66666 12.8435 6.7369 13.013 6.86193 13.1381C6.98695 13.2631 7.15652 13.3333 7.33333 13.3333H10C10.1768 13.3333 10.3464 13.2631 10.4714 13.1381C10.5964 13.013 10.6667 12.8435 10.6667 12.6667C10.6667 12.4899 10.5964 12.3203 10.4714 12.1953C10.3464 12.0702 10.1768 12 10 12ZM18 3.33333V12.3908C18.0006 12.566 17.9663 12.7395 17.8992 12.9013C17.8321 13.0631 17.7335 13.21 17.6092 13.3333L13.3333 17.6092C13.21 17.7335 13.0631 17.8321 12.9013 17.8992C12.7395 17.9663 12.566 18.0006 12.3908 18H3.33333C2.97971 18 2.64057 17.8595 2.39052 17.6095C2.14048 17.3594 2 17.0203 2 16.6667V3.33333C2 2.97971 2.14048 2.64057 2.39052 2.39052C2.64057 2.14048 2.97971 2 3.33333 2H16.6667C17.0203 2 17.3594 2.14048 17.6095 2.39052C17.8595 2.64057 18 2.97971 18 3.33333ZM3.33333 16.6667H12V12.6667C12 12.4899 12.0702 12.3203 12.1953 12.1953C12.3203 12.0702 12.4899 12 12.6667 12H16.6667V3.33333H3.33333V16.6667ZM13.3333 13.3333V15.725L15.7242 13.3333H13.3333Z" fill="#333333"/>
</svg>
